# xmcd
#
# Track frame offsets: 
#        150
#        15682
#        32919
#        47103
#        64781
#        79616
#        97894
#        119001
#        139010
#        157203
#        172115
#        187150
#        204610
#        219469
#        233304
#        245658
#        268007
#        286550
#        304039
#
# Disc length: 4344 seconds
#
# Revision: 1
# Processed by: cddbd v1.5.2PL0 Copyright (c) Steve Scherf et al.
# Submitted via: ExactAudioCopy v0.99pb4
#
DISCID=1110f613
DTITLE=Various Artist - Seventies Power Ballads - Disc 2
DYEAR=1900
DGENRE=Rock
TTITLE0=John Lennon - Stand By Me
TTITLE1=David Bowie - Life On Mars
TTITLE2=Slade - Everyday
TTITLE3=Chicago - If You Leave Me Now
TTITLE4=Jeff Beck And Rod Stewart - I've Been Drinking
TTITLE5=Sad Cafe - Every Day Hurts
TTITLE6=England Dan And John Ford Coley - Love Is The Answer
TTITLE7=Eric Carmen - All By Myself
TTITLE8=The Hollies - The Air That I Breath
TTITLE9=Nilsson - Without You
TTITLE10=Ace - How Long
TTITLE11=Suzi Quatro - If You Can't Give Me Love
TTITLE12=Blondie - Union City Blue
TTITLE13=The Arrows - I Love Rock 'N' Roll
TTITLE14=Hello - New York Groove
TTITLE15=Marc Bolan And T. Rex - Teenage Dream
TTITLE16=Kiki Dee - Amoureuse
TTITLE17=Judy Tzuke - Stay With Me Till Dawn
TTITLE18=Simon And Garfunkel - Bridge Over Troubled Water
EXTD=
EXTT0=
EXTT1=
EXTT2=
EXTT3=
EXTT4=
EXTT5=
EXTT6=
EXTT7=
EXTT8=
EXTT9=
EXTT10=
EXTT11=
EXTT12=
EXTT13=
EXTT14=
EXTT15=
EXTT16=
EXTT17=
EXTT18=
PLAYORDER=
